<svg width="34" height="34" viewBox="0 0 34 34" fill="none" xmlns="http://www.w3.org/2000/svg">
<g clip-path="url(#clip0_612_2034)">
<path d="M0.00722886 23.5928C0.00722886 28.0628 3.63073 31.6863 8.10074 31.6863C12.5708 31.6863 16.1943 28.0628 16.1943 23.5928C16.1943 19.1227 12.5708 15.4993 8.10074 15.4993C7.18208 15.4993 6.30271 15.6594 5.47948 15.9416C7.30087 5.49549 15.4468 -1.24108 7.89555 4.30325C-0.477698 10.4513 -0.00173887 23.3454 0.0076304 23.5817C0.0076304 23.5854 0.00722886 23.5887 0.00722886 23.5928Z" fill="url(#paint0_linear_612_2034)"/>
<path d="M17.8129 23.5928C17.8129 28.0628 21.4364 31.6863 25.9065 31.6863C30.3766 31.6863 34.0001 28.0628 34.0001 23.5928C34.0001 19.1227 30.3765 15.4993 25.9064 15.4993C24.9877 15.4993 24.1084 15.6594 23.2852 15.9416C25.1065 5.49549 33.2525 -1.24108 25.7012 4.30325C17.328 10.4513 17.8039 23.3454 17.8133 23.5817C17.8133 23.5854 17.8129 23.5887 17.8129 23.5928Z" fill="url(#paint1_linear_612_2034)"/>
</g>
<defs>
<linearGradient id="paint0_linear_612_2034" x1="0.526644" y1="16.9999" x2="15.5031" y2="16.9999" gradientUnits="userSpaceOnUse">
<stop stop-color="#394491"/>
<stop offset="1" stop-color="#04ADED"/>
</linearGradient>
<linearGradient id="paint1_linear_612_2034" x1="18.3323" y1="16.9999" x2="33.3088" y2="16.9999" gradientUnits="userSpaceOnUse">
<stop stop-color="#394491"/>
<stop offset="1" stop-color="#04ADED"/>
</linearGradient>
<clipPath id="clip0_612_2034">
<rect width="34" height="34" fill="white"/>
</clipPath>
</defs>
</svg>
