<svg width="1920" height="808" viewBox="0 0 1920 808" fill="none" xmlns="http://www.w3.org/2000/svg">
<path d="M-28 24.5208H-18.4689M-18.4689 24.5208H62.2652M-18.4689 24.5208L-18.4689 93.5208M-18.4689 24.5208L-18.4689 -44.4792M62.2652 24.5208H142.999M62.2652 24.5208V93.5208M62.2652 24.5208V-44.4792M142.999 24.5208L223.733 24.5209M142.999 24.5208V93.5208M142.999 24.5208L142.999 -44.4792M223.733 24.5209H304.467M223.733 24.5209V93.5209M223.733 24.5209L223.733 -44.4791M304.467 24.5209H385.201M304.467 24.5209V93.5209M304.467 24.5209V-44.4791M385.201 24.5209H465.936M385.201 24.5209V93.5209M385.201 24.5209V-44.4791M465.936 24.5209L546.67 24.5209M465.936 24.5209V93.5209M465.936 24.5209V-44.4791M546.67 24.5209H627.404M546.67 24.5209V93.5209M546.67 24.5209V-44.4791M627.404 24.5209H708.138M627.404 24.5209V93.5209M627.404 24.5209V-44.4791M708.138 24.5209H788.872M708.138 24.5209V93.5209M708.138 24.5209V-44.4791M788.872 24.5209L869.606 24.5209M788.872 24.5209V93.5209M788.872 24.5209V-44.4791M869.606 24.5209H950.34M869.606 24.5209V93.5209M869.606 24.5209V-44.4791M950.34 24.5209H1030.51M950.34 24.5209V93.5209M950.34 24.5209V-44.4791M-28 -182.479H-18.4689M-18.4689 -182.479H62.2652M-18.4689 -182.479L-18.4689 -113.479M-18.4689 -182.479L-18.4689 -251.479M62.2652 -182.479L142.999 -182.479M62.2652 -182.479L62.2652 -113.479M62.2652 -182.479V-251.479M142.999 -182.479H223.733M142.999 -182.479V-113.479M142.999 -182.479V-251.479M223.733 -182.479L304.467 -182.479M223.733 -182.479V-113.479M223.733 -182.479V-251.479M304.467 -182.479H385.201M304.467 -182.479V-113.479M304.467 -182.479V-251.479M385.201 -182.479H465.936M385.201 -182.479V-113.479M385.201 -182.479V-251.479M465.936 -182.479L546.67 -182.479M465.936 -182.479V-113.479M465.936 -182.479V-251.479M546.67 -182.479H627.404M546.67 -182.479V-113.479M546.67 -182.479V-251.479M627.404 -182.479H708.138M627.404 -182.479V-113.479M627.404 -182.479V-251.479M708.138 -182.479L788.872 -182.479M708.138 -182.479V-113.479M708.138 -182.479V-251.479M788.872 -182.479H869.606M788.872 -182.479V-113.479M788.872 -182.479V-251.479M869.606 -182.479L950.34 -182.479M869.606 -182.479V-113.479M869.606 -182.479V-251.479M950.34 -182.479H1030.51M950.34 -182.479V-113.479M950.34 -182.479V-251.479M-28 -113.479H-18.4689M-18.4689 -113.479H62.2652M-18.4689 -113.479L-18.4689 -44.4792M62.2652 -113.479L142.999 -113.479M62.2652 -113.479V-44.4792M142.999 -113.479H223.733M142.999 -113.479V-44.4792M223.733 -113.479L304.467 -113.479M223.733 -113.479V-44.4791M304.467 -113.479H385.201M304.467 -113.479V-44.4791M385.201 -113.479H465.936M385.201 -113.479V-44.4791M465.936 -113.479L546.67 -113.479M465.936 -113.479V-44.4791M546.67 -113.479H627.404M546.67 -113.479V-44.4791M627.404 -113.479H708.138M627.404 -113.479V-44.4791M708.138 -113.479L788.872 -113.479M708.138 -113.479V-44.4791M788.872 -113.479H869.606M788.872 -113.479V-44.4791M869.606 -113.479L950.34 -113.479M869.606 -113.479V-44.4791M950.34 -113.479H1030.51M950.34 -113.479V-44.4791M-28 -44.4792H-18.4689M-18.4689 -44.4792H62.2652M62.2652 -44.4792H142.999M142.999 -44.4792L223.733 -44.4791M223.733 -44.4791H304.467M304.467 -44.4791H385.201M385.201 -44.4791H465.936M465.936 -44.4791L546.67 -44.4791M546.67 -44.4791H627.404M627.404 -44.4791H708.138M708.138 -44.4791H788.872M788.872 -44.4791L869.606 -44.4791M869.606 -44.4791H950.34M950.34 -44.4791H1030.51M-28 93.5208H-18.4689M-18.4689 93.5208H62.2652M-18.4689 93.5208L-18.4689 162.521M62.2652 93.5208H142.999M62.2652 93.5208V162.521M142.999 93.5208L223.733 93.5209M142.999 93.5208V162.521M223.733 93.5209H304.467M223.733 93.5209V162.521M304.467 93.5209H385.201M304.467 93.5209V162.521M385.201 93.5209H465.936M385.201 93.5209V162.521M465.936 93.5209L546.67 93.5209M465.936 93.5209V162.521M546.67 93.5209H627.404M546.67 93.5209V162.521M627.404 93.5209H708.138M627.404 93.5209V162.521M708.138 93.5209H788.872M708.138 93.5209V162.521M788.872 93.5209L869.606 93.5209M788.872 93.5209V162.521M869.606 93.5209H950.34M869.606 93.5209V162.521M950.34 93.5209H1030.51M950.34 93.5209V162.521M-28 162.521H-18.4689M-18.4689 162.521H62.2652M-18.4689 162.521L-18.4689 231.521M-18.4689 162.521L-18.4689 94M62.2652 162.521H142.999M62.2652 162.521V231.521M62.2652 162.521L62.2652 94M142.999 162.521L223.733 162.521M142.999 162.521V231.521M142.999 162.521L142.999 94M223.733 162.521H304.467M223.733 162.521V231.521M223.733 162.521L223.733 94M304.467 162.521H385.201M304.467 162.521V231.521M304.467 162.521V94M385.201 162.521H465.936M385.201 162.521V231.521M385.201 162.521V94M465.936 162.521L546.67 162.521M465.936 162.521V231.521M465.936 162.521V94M546.67 162.521H627.404M546.67 162.521V231.521M546.67 162.521V94M627.404 162.521H708.138M627.404 162.521V231.521M627.404 162.521V94M708.138 162.521H788.872M708.138 162.521V231.521M708.138 162.521V94M788.872 162.521L869.606 162.521M788.872 162.521V231.521M788.872 162.521V94M869.606 162.521H950.34M869.606 162.521V231.521M869.606 162.521V94M950.34 162.521H1030.51M950.34 162.521V231.521M950.34 162.521V94M-28 231.521H-18.4689M-18.4689 231.521H62.2652M-18.4689 231.521L-18.4689 300.521M62.2652 231.521H142.999M62.2652 231.521L62.2652 300.521M142.999 231.521H223.733M142.999 231.521V300.521M223.733 231.521H304.467M223.733 231.521V300.521M304.467 231.521H385.201M304.467 231.521L304.467 300.521M385.201 231.521H465.936M385.201 231.521L385.201 300.521M465.936 231.521L546.67 231.521M465.936 231.521L465.935 300.521M546.67 231.521H627.404M546.67 231.521V300.521M627.404 231.521H708.138M627.404 231.521V300.521M708.138 231.521H788.872M708.138 231.521V300.521M788.872 231.521H869.606M788.872 231.521V300.521M869.606 231.521H950.34M869.606 231.521V300.521M950.34 231.521H1030.51M950.34 231.521V300.521M-28 -251.479H-18.4689M-18.4689 -251.479L62.2652 -251.479M-18.4689 -251.479L-18.4689 -320M62.2652 -251.479L142.999 -251.479M62.2652 -251.479V-320M142.999 -251.479L223.733 -251.479M142.999 -251.479V-320M223.733 -251.479H304.467M223.733 -251.479V-320M304.467 -251.479L385.201 -251.479M304.467 -251.479V-320M385.201 -251.479L465.936 -251.479M385.201 -251.479V-320M465.936 -251.479L546.67 -251.479M465.936 -251.479V-320M546.67 -251.479L627.404 -251.479M546.67 -251.479V-320M627.404 -251.479L708.138 -251.479M627.404 -251.479V-320M708.138 -251.479H788.872M708.138 -251.479V-320M788.872 -251.479L869.606 -251.479M788.872 -251.479V-320M869.606 -251.479L950.34 -251.479M869.606 -251.479V-320M950.34 -251.479L1030.51 -251.479M950.34 -251.479V-320M1031.63 24.5208H1111.81M1111.81 24.5208H1192.54M1111.81 24.5208V93.5208M1111.81 24.5208V-44.4792M1192.54 24.5208L1273.28 24.5209M1192.54 24.5208V93.5208M1192.54 24.5208V-44.4792M1273.28 24.5209H1354.01M1273.28 24.5209V93.5209M1273.28 24.5209V-44.4791M1354.01 24.5209H1434.74M1354.01 24.5209V93.5209M1354.01 24.5209V-44.4791M1434.74 24.5209H1515.48M1434.74 24.5209V93.5209M1434.74 24.5209V-44.4791M1515.48 24.5209L1596.21 24.5209M1515.48 24.5209V93.5209M1515.48 24.5209V-44.4791M1596.21 24.5209H1676.95M1596.21 24.5209V93.5209M1596.21 24.5209V-44.4791M1676.95 24.5209H1757.68M1676.95 24.5209V93.5209M1676.95 24.5209V-44.4791M1757.68 24.5209H1838.41M1757.68 24.5209V93.5209M1757.68 24.5209V-44.4791M1838.41 24.5209H1919.15M1838.41 24.5209V93.5209M1838.41 24.5209V-44.4791M1919.15 24.5209L1999.88 24.5209M1919.15 24.5209V93.5209M1919.15 24.5209V-44.4791M1999.88 24.5209H2080.62M1999.88 24.5209V93.5209M1999.88 24.5209V-44.4791M2080.62 24.5209H2135M2080.62 24.5209V93.5209M2080.62 24.5209V-44.4791M1031.63 576.521H1111.81M1111.81 576.521H1192.54M1111.81 576.521V645.521M1111.81 576.521V507.521M1192.54 576.521H1273.28M1192.54 576.521V645.521M1192.54 576.521V507.521M1273.28 576.521H1354.01M1273.28 576.521V645.521M1273.28 576.521V507.521M1354.01 576.521H1434.74M1354.01 576.521V645.521M1354.01 576.521V507.521M1434.74 576.521H1515.48M1434.74 576.521V645.521M1434.74 576.521V507.521M1515.48 576.521L1596.21 576.521M1515.48 576.521V645.521M1515.48 576.521V507.521M1596.21 576.521H1676.95M1596.21 576.521V645.521M1596.21 576.521V507.521M1676.95 576.521H1757.68M1676.95 576.521V645.521M1676.95 576.521V507.521M1757.68 576.521H1838.41M1757.68 576.521V645.521M1757.68 576.521V507.521M1838.41 576.521H1919.15M1838.41 576.521V645.521M1838.41 576.521V507.521M1919.15 576.521H1999.88M1919.15 576.521V645.521M1919.15 576.521V507.521M1999.88 576.521H2080.62M1999.88 576.521V645.521M1999.88 576.521V507.521M2080.62 576.521H2135M2080.62 576.521V645.521M2080.62 576.521V507.521M1031.63 -182.479H1111.81M1111.81 -182.479L1192.54 -182.479M1111.81 -182.479V-113.479M1111.81 -182.479V-251.479M1192.54 -182.479H1273.28M1192.54 -182.479V-113.479M1192.54 -182.479V-251.479M1273.28 -182.479L1354.01 -182.479M1273.28 -182.479V-113.479M1273.28 -182.479V-251.479M1354.01 -182.479H1434.74M1354.01 -182.479V-113.479M1354.01 -182.479V-251.479M1434.74 -182.479L1515.48 -182.479M1434.74 -182.479V-113.479M1434.74 -182.479V-251.479M1515.48 -182.479H1596.21M1515.48 -182.479V-113.479M1515.48 -182.479V-251.479M1596.21 -182.479L1676.95 -182.479M1596.21 -182.479V-113.479M1596.21 -182.479V-251.479M1676.95 -182.479H1757.68M1676.95 -182.479V-113.479M1676.95 -182.479V-251.479M1757.68 -182.479H1838.41M1757.68 -182.479V-113.479M1757.68 -182.479V-251.479M1838.41 -182.479L1919.15 -182.479M1838.41 -182.479V-113.479M1838.41 -182.479V-251.479M1919.15 -182.479H1999.88M1919.15 -182.479V-113.479M1919.15 -182.479V-251.479M1999.88 -182.479L2080.62 -182.479M1999.88 -182.479V-113.479M1999.88 -182.479V-251.479M2080.62 -182.479H2135M2080.62 -182.479V-113.479M2080.62 -182.479V-251.479M1031.63 369.521H1111.81M1111.81 369.521H1192.54M1111.81 369.521V438.521M1111.81 369.521V300.521M1192.54 369.521H1273.28M1192.54 369.521V438.521M1192.54 369.521V300.521M1273.28 369.521H1354.01M1273.28 369.521V438.521M1273.28 369.521V300.521M1354.01 369.521H1434.74M1354.01 369.521V438.521M1354.01 369.521V300.521M1434.74 369.521H1515.48M1434.74 369.521V438.521M1434.74 369.521V300.521M1515.48 369.521L1596.21 369.521M1515.48 369.521V438.521M1515.48 369.521V300.521M1596.21 369.521H1676.95M1596.21 369.521V438.521M1596.21 369.521V300.521M1676.95 369.521H1757.68M1676.95 369.521V438.521M1676.95 369.521V300.521M1757.68 369.521H1838.41M1757.68 369.521V438.521M1757.68 369.521V300.521M1838.41 369.521H1919.15M1838.41 369.521V438.521M1838.41 369.521V300.521M1919.15 369.521H1999.88M1919.15 369.521V438.521M1919.15 369.521V300.521M1999.88 369.521H2080.62M1999.88 369.521V438.521M1999.88 369.521V300.521M2080.62 369.521H2135M2080.62 369.521V438.521M2080.62 369.521V300.521M1031.63 -113.479H1111.81M1111.81 -113.479L1192.54 -113.479M1111.81 -113.479V-44.4792M1192.54 -113.479H1273.28M1192.54 -113.479V-44.4792M1273.28 -113.479L1354.01 -113.479M1273.28 -113.479V-44.4791M1354.01 -113.479H1434.74M1354.01 -113.479V-44.4791M1434.74 -113.479L1515.48 -113.479M1434.74 -113.479V-44.4791M1515.48 -113.479H1596.21M1515.48 -113.479V-44.4791M1596.21 -113.479L1676.95 -113.479M1596.21 -113.479V-44.4791M1676.95 -113.479H1757.68M1676.95 -113.479V-44.4791M1757.68 -113.479H1838.41M1757.68 -113.479V-44.4791M1838.41 -113.479L1919.15 -113.479M1838.41 -113.479V-44.4791M1919.15 -113.479H1999.88M1919.15 -113.479V-44.4791M1999.88 -113.479L2080.62 -113.479M1999.88 -113.479V-44.4791M2080.62 -113.479H2135M2080.62 -113.479V-44.4791M1031.63 438.521H1111.81M1111.81 438.521H1192.54M1111.81 438.521V507.521M1192.54 438.521H1273.28M1192.54 438.521V507.521M1273.28 438.521H1354.01M1273.28 438.521V507.521M1354.01 438.521H1434.74M1354.01 438.521V507.521M1434.74 438.521H1515.48M1434.74 438.521V507.521M1515.48 438.521L1596.21 438.521M1515.48 438.521V507.521M1596.21 438.521H1676.95M1596.21 438.521V507.521M1676.95 438.521H1757.68M1676.95 438.521V507.521M1757.68 438.521H1838.41M1757.68 438.521V507.521M1838.41 438.521H1919.15M1838.41 438.521V507.521M1919.15 438.521H1999.88M1919.15 438.521V507.521M1999.88 438.521H2080.62M1999.88 438.521V507.521M2080.62 438.521H2135M2080.62 438.521V507.521M1031.63 -44.4792H1111.81M1111.81 -44.4792H1192.54M1192.54 -44.4792L1273.28 -44.4791M1273.28 -44.4791H1354.01M1354.01 -44.4791H1434.74M1434.74 -44.4791H1515.48M1515.48 -44.4791L1596.21 -44.4791M1596.21 -44.4791H1676.95M1676.95 -44.4791H1757.68M1757.68 -44.4791H1838.41M1838.41 -44.4791H1919.15M1919.15 -44.4791L1999.88 -44.4791M1999.88 -44.4791H2080.62M2080.62 -44.4791H2135M1031.63 507.521H1111.81M1111.81 507.521H1192.54M1192.54 507.521H1273.28M1273.28 507.521H1354.01M1354.01 507.521H1434.74M1434.74 507.521H1515.48M1515.48 507.521L1596.21 507.521M1596.21 507.521H1676.95M1676.95 507.521H1757.68M1757.68 507.521H1838.41M1838.41 507.521H1919.15M1919.15 507.521H1999.88M1999.88 507.521H2080.62M2080.62 507.521H2135M1031.63 93.5208H1111.81M1111.81 93.5208H1192.54M1111.81 93.5208V162.521M1192.54 93.5208L1273.28 93.5209M1192.54 93.5208V162.521M1273.28 93.5209H1354.01M1273.28 93.5209V162.521M1354.01 93.5209H1434.74M1354.01 93.5209V162.521M1434.74 93.5209H1515.48M1434.74 93.5209V162.521M1515.48 93.5209L1596.21 93.5209M1515.48 93.5209V162.521M1596.21 93.5209H1676.95M1596.21 93.5209V162.521M1676.95 93.5209H1757.68M1676.95 93.5209V162.521M1757.68 93.5209H1838.41M1757.68 93.5209V162.521M1838.41 93.5209H1919.15M1838.41 93.5209V162.521M1919.15 93.5209L1999.88 93.5209M1919.15 93.5209V162.521M1999.88 93.5209H2080.62M1999.88 93.5209V162.521M2080.62 93.5209H2135M2080.62 93.5209V162.521M1031.63 645.521H1111.81M1111.81 645.521H1192.54M1111.81 645.521V714.521M1192.54 645.521H1273.28M1192.54 645.521V714.521M1273.28 645.521H1354.01M1273.28 645.521V714.521M1354.01 645.521H1434.74M1354.01 645.521V714.521M1434.74 645.521H1515.48M1434.74 645.521V714.521M1515.48 645.521L1596.21 645.521M1515.48 645.521V714.521M1596.21 645.521H1676.95M1596.21 645.521V714.521M1676.95 645.521H1757.68M1676.95 645.521V714.521M1757.68 645.521H1838.41M1757.68 645.521V714.521M1838.41 645.521H1919.15M1838.41 645.521V714.521M1919.15 645.521H1999.88M1919.15 645.521V714.521M1999.88 645.521H2080.62M1999.88 645.521V714.521M2080.62 645.521H2135M2080.62 645.521V714.521M1031.63 162.521H1111.81M1111.81 162.521H1192.54M1111.81 162.521V231.521M1111.81 162.521V94M1192.54 162.521L1273.28 162.521M1192.54 162.521V231.521M1192.54 162.521V94M1273.28 162.521H1354.01M1273.28 162.521V231.521M1273.28 162.521V94M1354.01 162.521H1434.74M1354.01 162.521V231.521M1354.01 162.521V94M1434.74 162.521H1515.48M1434.74 162.521V231.521M1434.74 162.521V94M1515.48 162.521L1596.21 162.521M1515.48 162.521V231.521M1515.48 162.521V94M1596.21 162.521H1676.95M1596.21 162.521V231.521M1596.21 162.521V94M1676.95 162.521H1757.68M1676.95 162.521V231.521M1676.95 162.521V94M1757.68 162.521H1838.41M1757.68 162.521V231.521M1757.68 162.521V94M1838.41 162.521H1919.15M1838.41 162.521V231.521M1838.41 162.521V94M1919.15 162.521L1999.88 162.521M1919.15 162.521V231.521M1919.15 162.521V94M1999.88 162.521H2080.62M1999.88 162.521V231.521M1999.88 162.521V94M2080.62 162.521H2135M2080.62 162.521V231.521M2080.62 162.521V94M1031.63 714.521H1111.81M1111.81 714.521H1192.54M1111.81 714.521V783.521M1192.54 714.521H1273.28M1192.54 714.521V783.521M1273.28 714.521H1354.01M1273.28 714.521V783.521M1354.01 714.521H1434.74M1354.01 714.521V783.521M1434.74 714.521H1515.48M1434.74 714.521V783.521M1515.48 714.521L1596.21 714.521M1515.48 714.521V783.521M1596.21 714.521H1676.95M1596.21 714.521V783.521M1676.95 714.521H1757.68M1676.95 714.521V783.521M1757.68 714.521H1838.41M1757.68 714.521V783.521M1838.41 714.521H1919.15M1838.41 714.521V783.521M1919.15 714.521H1999.88M1919.15 714.521V783.521M1999.88 714.521H2080.62M1999.88 714.521V783.521M2080.62 714.521H2135M2080.62 714.521V783.521M1031.63 231.521H1111.81M1111.81 231.521H1192.54M1111.81 231.521V300.521M1192.54 231.521H1273.28M1192.54 231.521V300.521M1273.28 231.521H1354.01M1273.28 231.521V300.521M1354.01 231.521H1434.74M1354.01 231.521V300.521M1434.74 231.521H1515.48M1434.74 231.521V300.521M1515.48 231.521L1596.21 231.521M1515.48 231.521V300.521M1596.21 231.521H1676.95M1596.21 231.521V300.521M1676.95 231.521H1757.68M1676.95 231.521V300.521M1757.68 231.521H1838.41M1757.68 231.521V300.521M1838.41 231.521H1919.15M1838.41 231.521V300.521M1919.15 231.521H1999.88M1919.15 231.521V300.521M1999.88 231.521H2080.62M1999.88 231.521V300.521M2080.62 231.521H2135M2080.62 231.521V300.521M1031.63 783.521H1111.81M1111.81 783.521H1192.54M1111.81 783.521V784M1111.81 783.521V852.521M1192.54 783.521H1273.28M1192.54 783.521V784M1192.54 783.521V852.521M1273.28 783.521H1354.01M1273.28 783.521V784M1273.28 783.521V852.521M1354.01 783.521H1434.74M1354.01 783.521V784M1354.01 783.521V852.521M1434.74 783.521H1515.48M1434.74 783.521V784M1434.74 783.521V852.521M1515.48 783.521L1596.21 783.521M1515.48 783.521V784M1515.48 783.521V852.521M1596.21 783.521H1676.95M1596.21 783.521V784M1596.21 783.521V852.521M1676.95 783.521H1757.68M1676.95 783.521V784M1676.95 783.521V852.521M1757.68 783.521H1838.41M1757.68 783.521V784M1757.68 783.521V852.521M1838.41 783.521H1919.15M1838.41 783.521V784M1838.41 783.521V852.521M1919.15 783.521H1999.88M1919.15 783.521V784M1919.15 783.521V852.521M1999.88 783.521H2080.62M1999.88 783.521V784M1999.88 783.521V852.521M2080.62 783.521H2135M2080.62 783.521V784M2080.62 783.521V852.521M1031.63 -251.479L1111.81 -251.479M1111.81 -251.479L1192.54 -251.479M1111.81 -251.479V-320M1192.54 -251.479H1273.28M1192.54 -251.479V-320M1273.28 -251.479L1354.01 -251.479M1273.28 -251.479V-320M1354.01 -251.479L1434.74 -251.479M1354.01 -251.479V-320M1434.74 -251.479L1515.48 -251.479M1434.74 -251.479V-320M1515.48 -251.479L1596.21 -251.479M1515.48 -251.479V-320M1596.21 -251.479H1676.95M1596.21 -251.479V-320M1676.95 -251.479L1757.68 -251.479M1676.95 -251.479V-320M1757.68 -251.479L1838.41 -251.479M1757.68 -251.479V-320M1838.41 -251.479L1919.15 -251.479M1838.41 -251.479V-320M1919.15 -251.479L1999.88 -251.479M1919.15 -251.479V-320M1999.88 -251.479H2080.62M1999.88 -251.479V-320M2080.62 -251.479L2135 -251.479M2080.62 -251.479V-320M1031.63 300.521H1111.81M1111.81 300.521H1192.54M1192.54 300.521H1273.28M1273.28 300.521H1354.01M1354.01 300.521H1434.74M1434.74 300.521H1515.48M1515.48 300.521L1596.21 300.521M1596.21 300.521H1676.95M1676.95 300.521H1757.68M1757.68 300.521H1838.41M1838.41 300.521H1919.15M1919.15 300.521H1999.88M1999.88 300.521H2080.62M2080.62 300.521H2135M-28 576.521H-18.4689M-18.4689 576.521H62.2652M-18.4689 576.521L-18.4689 645.521M-18.4689 576.521L-18.4689 507.521M62.2652 576.521H142.999M62.2652 576.521L62.2652 645.521M62.2652 576.521V507.521M142.999 576.521H223.733M142.999 576.521V645.521M142.999 576.521L142.999 507.521M223.733 576.521H304.467M223.733 576.521V645.521M223.733 576.521L223.733 507.521M304.467 576.521H385.201M304.467 576.521V645.521M304.467 576.521V507.521M385.201 576.521H465.935M385.201 576.521V645.521M385.201 576.521V507.521M465.935 576.521L546.67 576.521M465.935 576.521V645.521M465.935 576.521V507.521M546.67 576.521H627.404M546.67 576.521V645.521M546.67 576.521V507.521M627.404 576.521H708.138M627.404 576.521V645.521M627.404 576.521V507.521M708.138 576.521H788.872M708.138 576.521V645.521M708.138 576.521V507.521M788.872 576.521H869.606M788.872 576.521V645.521M788.872 576.521V507.521M869.606 576.521H950.34M869.606 576.521V645.521M869.606 576.521V507.521M950.34 576.521H1030.51M950.34 576.521V645.521M950.34 576.521V507.521M-28 369.521H-18.4689M-18.4689 369.521H62.2652M-18.4689 369.521L-18.4689 438.521M-18.4689 369.521L-18.4689 300.521M62.2652 369.521H142.999M62.2652 369.521V438.521M62.2652 369.521V300.521M142.999 369.521H223.733M142.999 369.521V438.521M142.999 369.521V300.521M223.733 369.521H304.467M223.733 369.521V438.521M223.733 369.521V300.521M304.467 369.521H385.201M304.467 369.521V438.521M304.467 369.521V300.521M385.201 369.521H465.935M385.201 369.521V438.521M385.201 369.521V300.521M465.935 369.521L546.67 369.521M465.935 369.521V438.521M465.935 369.521V300.521M546.67 369.521H627.404M546.67 369.521V438.521M546.67 369.521V300.521M627.404 369.521H708.138M627.404 369.521V438.521M627.404 369.521V300.521M708.138 369.521H788.872M708.138 369.521V438.521M708.138 369.521V300.521M788.872 369.521H869.606M788.872 369.521V438.521M788.872 369.521V300.521M869.606 369.521H950.34M869.606 369.521V438.521M869.606 369.521V300.521M950.34 369.521H1030.51M950.34 369.521V438.521M950.34 369.521V300.521M-28 438.521H-18.4689M-18.4689 438.521H62.2652M-18.4689 438.521L-18.4689 507.521M62.2652 438.521H142.999M62.2652 438.521V507.521M142.999 438.521H223.733M142.999 438.521V507.521M223.733 438.521H304.467M223.733 438.521V507.521M304.467 438.521H385.201M304.467 438.521V507.521M385.201 438.521H465.935M385.201 438.521V507.521M465.935 438.521L546.67 438.521M465.935 438.521V507.521M546.67 438.521H627.404M546.67 438.521V507.521M627.404 438.521H708.138M627.404 438.521V507.521M708.138 438.521H788.872M708.138 438.521V507.521M788.872 438.521H869.606M788.872 438.521V507.521M869.606 438.521H950.34M869.606 438.521V507.521M950.34 438.521H1030.51M950.34 438.521V507.521M-28 507.521H-18.4689M-18.4689 507.521H62.2652M62.2652 507.521H142.999M142.999 507.521H223.733M223.733 507.521H304.467M304.467 507.521H385.201M385.201 507.521H465.935M465.935 507.521L546.67 507.521M546.67 507.521H627.404M627.404 507.521H708.138M708.138 507.521H788.872M788.872 507.521H869.606M869.606 507.521H950.34M950.34 507.521H1030.51M-28 645.521H-18.4689M-18.4689 645.521H62.2652M-18.4689 645.521L-18.4689 714.521M62.2652 645.521H142.999M62.2652 645.521V714.521M142.999 645.521H223.733M142.999 645.521V714.521M223.733 645.521H304.467M223.733 645.521V714.521M304.467 645.521H385.201M304.467 645.521V714.521M385.201 645.521H465.935M385.201 645.521V714.521M465.935 645.521L546.67 645.521M465.935 645.521V714.521M546.67 645.521H627.404M546.67 645.521V714.521M627.404 645.521H708.138M627.404 645.521V714.521M708.138 645.521H788.872M708.138 645.521V714.521M788.872 645.521H869.606M788.872 645.521V714.521M869.606 645.521H950.34M869.606 645.521V714.521M950.34 645.521H1030.51M950.34 645.521V714.521M-28 714.521H-18.4689M-18.4689 714.521H62.2652M-18.4689 714.521L-18.4689 783.521M62.2652 714.521H142.999M62.2652 714.521V783.521M142.999 714.521H223.733M142.999 714.521V783.521M223.733 714.521H304.467M223.733 714.521V783.521M304.467 714.521H385.201M304.467 714.521V783.521M385.201 714.521H465.935M385.201 714.521V783.521M465.935 714.521L546.67 714.521M465.935 714.521V783.521M546.67 714.521H627.404M546.67 714.521V783.521M627.404 714.521H708.138M627.404 714.521V783.521M708.138 714.521H788.872M708.138 714.521V783.521M788.872 714.521H869.606M788.872 714.521V783.521M869.606 714.521H950.34M869.606 714.521V783.521M950.34 714.521H1030.51M950.34 714.521V783.521M-28 783.521H-18.4689M-18.4689 783.521H62.2652M-18.4689 783.521V784M-18.4689 783.521L-18.4689 852.521M62.2652 783.521H142.999M62.2652 783.521V784M62.2652 783.521L62.2652 852.521M142.999 783.521H223.733M142.999 783.521V784M142.999 783.521L142.999 852.521M223.733 783.521H304.467M223.733 783.521V784M223.733 783.521L223.733 852.521M304.467 783.521H385.201M304.467 783.521V784M304.467 783.521V852.521M385.201 783.521H465.935M385.201 783.521V784M385.201 783.521V852.521M465.935 783.521L546.67 783.521M465.935 783.521V784M465.935 783.521V852.521M546.67 783.521H627.404M546.67 783.521V784M546.67 783.521V852.521M627.404 783.521H708.138M627.404 783.521V784M627.404 783.521V852.521M708.138 783.521H788.872M708.138 783.521V784M708.138 783.521V852.521M788.872 783.521H869.606M788.872 783.521V784M788.872 783.521V852.521M869.606 783.521H950.34M869.606 783.521V784M869.606 783.521V852.521M950.34 783.521H1030.51M950.34 783.521V784M950.34 783.521V852.521M-28 300.521H-18.4689M-18.4689 300.521H62.2652M62.2652 300.521H142.999M142.999 300.521H223.733M223.733 300.521H304.467M304.467 300.521H385.201M385.201 300.521H465.935M465.935 300.521L546.67 300.521M546.67 300.521H627.404M627.404 300.521H708.138M708.138 300.521H788.872M788.872 300.521H869.606M869.606 300.521H950.34M950.34 300.521H1030.51M1031.07 784V-320M1031.63 990.521H1111.81M1111.81 990.521H1192.54M1111.81 990.521V1059.52M1111.81 990.521V921.521M1192.54 990.521H1273.28M1192.54 990.521V1059.52M1192.54 990.521V921.521M1273.28 990.521H1354.01M1273.28 990.521V1059.52M1273.28 990.521V921.521M1354.01 990.521H1434.74M1354.01 990.521V1059.52M1354.01 990.521V921.521M1434.74 990.521H1515.48M1434.74 990.521V1059.52M1434.74 990.521V921.521M1515.48 990.521H1596.21M1515.48 990.521V1059.52M1515.48 990.521V921.521M1596.21 990.521H1676.95M1596.21 990.521V1059.52M1596.21 990.521V921.521M1676.95 990.521H1757.68M1676.95 990.521V1059.52M1676.95 990.521V921.521M1757.68 990.521H1838.41M1757.68 990.521V1059.52M1757.68 990.521V921.521M1838.41 990.521H1919.15M1838.41 990.521V1059.52M1838.41 990.521V921.521M1919.15 990.521H1999.88M1919.15 990.521V1059.52M1919.15 990.521V921.521M1999.88 990.521H2080.62M1999.88 990.521V1059.52M1999.88 990.521V921.521M2080.62 990.521H2135M2080.62 990.521V1059.52M2080.62 990.521V921.521M1031.63 852.521H1111.81M1111.81 852.521H1192.54M1111.81 852.521V921.521M1192.54 852.521H1273.28M1192.54 852.521V921.521M1273.28 852.521H1354.01M1273.28 852.521V921.521M1354.01 852.521H1434.74M1354.01 852.521V921.521M1434.74 852.521H1515.48M1434.74 852.521V921.521M1515.48 852.521L1596.21 852.521M1515.48 852.521V921.521M1596.21 852.521H1676.95M1596.21 852.521V921.521M1676.95 852.521H1757.68M1676.95 852.521V921.521M1757.68 852.521H1838.41M1757.68 852.521V921.521M1838.41 852.521H1919.15M1838.41 852.521V921.521M1919.15 852.521H1999.88M1919.15 852.521V921.521M1999.88 852.521H2080.62M1999.88 852.521V921.521M2080.62 852.521H2135M2080.62 852.521V921.521M1031.63 921.521H1111.81M1111.81 921.521H1192.54M1192.54 921.521H1273.28M1273.28 921.521H1354.01M1354.01 921.521H1434.74M1434.74 921.521H1515.48M1515.48 921.521H1596.21M1596.21 921.521H1676.95M1676.95 921.521H1757.68M1757.68 921.521H1838.41M1838.41 921.521H1919.15M1919.15 921.521H1999.88M1999.88 921.521H2080.62M2080.62 921.521H2135M1031.63 1059.52H1111.81M1111.81 1059.52H1192.54M1111.81 1059.52V1128.52M1192.54 1059.52H1273.28M1192.54 1059.52V1128.52M1273.28 1059.52H1354.01M1273.28 1059.52V1128.52M1354.01 1059.52H1434.74M1354.01 1059.52V1128.52M1434.74 1059.52H1515.48M1434.74 1059.52V1128.52M1515.48 1059.52H1596.21M1515.48 1059.52V1128.52M1596.21 1059.52H1676.95M1596.21 1059.52V1128.52M1676.95 1059.52H1757.68M1676.95 1059.52V1128.52M1757.68 1059.52H1838.41M1757.68 1059.52V1128.52M1838.41 1059.52H1919.15M1838.41 1059.52V1128.52M1919.15 1059.52H1999.88M1919.15 1059.52V1128.52M1999.88 1059.52H2080.62M1999.88 1059.52V1128.52M2080.62 1059.52H2135M2080.62 1059.52V1128.52M1031.63 1128.52H1111.81M1111.81 1128.52H1192.54M1111.81 1128.52V1197.52M1192.54 1128.52H1273.28M1192.54 1128.52V1197.52M1273.28 1128.52H1354.01M1273.28 1128.52V1197.52M1354.01 1128.52H1434.74M1354.01 1128.52V1197.52M1434.74 1128.52H1515.48M1434.74 1128.52V1197.52M1515.48 1128.52L1596.21 1128.52M1515.48 1128.52V1197.52M1596.21 1128.52H1676.95M1596.21 1128.52V1197.52M1676.95 1128.52H1757.68M1676.95 1128.52V1197.52M1757.68 1128.52H1838.41M1757.68 1128.52V1197.52M1838.41 1128.52H1919.15M1838.41 1128.52V1197.52M1919.15 1128.52H1999.88M1919.15 1128.52V1197.52M1999.88 1128.52H2080.62M1999.88 1128.52V1197.52M2080.62 1128.52H2135M2080.62 1128.52V1197.52M1031.63 1197.52H1111.81M1111.81 1197.52H1192.54M1111.81 1197.52V1198M1192.54 1197.52H1273.28M1192.54 1197.52V1198M1273.28 1197.52H1354.01M1273.28 1197.52V1198M1354.01 1197.52H1434.74M1354.01 1197.52V1198M1434.74 1197.52H1515.48M1434.74 1197.52V1198M1515.48 1197.52L1596.21 1197.52M1515.48 1197.52V1198M1596.21 1197.52H1676.95M1596.21 1197.52V1198M1676.95 1197.52H1757.68M1676.95 1197.52V1198M1757.68 1197.52H1838.41M1757.68 1197.52V1198M1838.41 1197.52H1919.15M1838.41 1197.52V1198M1919.15 1197.52H1999.88M1919.15 1197.52V1198M1999.88 1197.52H2080.62M1999.88 1197.52V1198M2080.62 1197.52H2135M2080.62 1197.52V1198M-28 990.521H-18.4689M-18.4689 990.521H62.2652M-18.4689 990.521L-18.4689 1059.52M-18.4689 990.521L-18.4689 921.521M62.2652 990.521H142.999M62.2652 990.521L62.2652 1059.52M62.2652 990.521V921.521M142.999 990.521H223.733M142.999 990.521V1059.52M142.999 990.521L142.999 921.521M223.733 990.521H304.467M223.733 990.521V1059.52M223.733 990.521L223.733 921.521M304.467 990.521H385.201M304.467 990.521V1059.52M304.467 990.521V921.521M385.201 990.521H465.935M385.201 990.521V1059.52M385.201 990.521V921.521M465.935 990.521H546.67M465.935 990.521V1059.52M465.935 990.521V921.521M546.67 990.521H627.404M546.67 990.521V1059.52M546.67 990.521V921.521M627.404 990.521H708.138M627.404 990.521V1059.52M627.404 990.521V921.521M708.138 990.521H788.872M708.138 990.521V1059.52M708.138 990.521V921.521M788.872 990.521H869.606M788.872 990.521V1059.52M788.872 990.521V921.521M869.606 990.521H950.34M869.606 990.521V1059.52M869.606 990.521V921.521M950.34 990.521H1030.51M950.34 990.521V1059.52M950.34 990.521V921.521M-28 852.521H-18.4689M-18.4689 852.521H62.2652M-18.4689 852.521L-18.4689 921.521M62.2652 852.521H142.999M62.2652 852.521V921.521M142.999 852.521H223.733M142.999 852.521V921.521M223.733 852.521H304.467M223.733 852.521V921.521M304.467 852.521H385.201M304.467 852.521V921.521M385.201 852.521H465.935M385.201 852.521V921.521M465.935 852.521H546.67M465.935 852.521V921.521M546.67 852.521H627.404M546.67 852.521V921.521M627.404 852.521H708.138M627.404 852.521V921.521M708.138 852.521H788.872M708.138 852.521V921.521M788.872 852.521H869.606M788.872 852.521V921.521M869.606 852.521H950.34M869.606 852.521V921.521M950.34 852.521H1030.51M950.34 852.521V921.521M-28 921.521H-18.4689M-18.4689 921.521H62.2652M62.2652 921.521H142.999M142.999 921.521H223.733M223.733 921.521H304.467M304.467 921.521H385.201M385.201 921.521H465.935M465.935 921.521H546.67M546.67 921.521H627.404M627.404 921.521H708.138M708.138 921.521H788.872M788.872 921.521H869.606M869.606 921.521H950.34M950.34 921.521H1030.51M-28 1059.52H-18.4689M-18.4689 1059.52H62.2652M-18.4689 1059.52L-18.4689 1128.52M62.2652 1059.52H142.999M62.2652 1059.52V1128.52M142.999 1059.52H223.733M142.999 1059.52V1128.52M223.733 1059.52H304.467M223.733 1059.52V1128.52M304.467 1059.52H385.201M304.467 1059.52V1128.52M385.201 1059.52H465.935M385.201 1059.52V1128.52M465.935 1059.52H546.67M465.935 1059.52V1128.52M546.67 1059.52H627.404M546.67 1059.52V1128.52M627.404 1059.52H708.138M627.404 1059.52V1128.52M708.138 1059.52H788.872M708.138 1059.52V1128.52M788.872 1059.52H869.606M788.872 1059.52V1128.52M869.606 1059.52H950.34M869.606 1059.52V1128.52M950.34 1059.52H1030.51M950.34 1059.52V1128.52M-28 1128.52H-18.4689M-18.4689 1128.52H62.2652M-18.4689 1128.52L-18.4689 1197.52M62.2652 1128.52H142.999M62.2652 1128.52V1197.52M142.999 1128.52H223.733M142.999 1128.52V1197.52M223.733 1128.52H304.467M223.733 1128.52V1197.52M304.467 1128.52H385.201M304.467 1128.52V1197.52M385.201 1128.52H465.935M385.201 1128.52V1197.52M465.935 1128.52L546.67 1128.52M465.935 1128.52V1197.52M546.67 1128.52H627.404M546.67 1128.52V1197.52M627.404 1128.52H708.138M627.404 1128.52V1197.52M708.138 1128.52H788.872M708.138 1128.52V1197.52M788.872 1128.52H869.606M788.872 1128.52V1197.52M869.606 1128.52H950.34M869.606 1128.52V1197.52M950.34 1128.52H1030.51M950.34 1128.52V1197.52M-28 1197.52H-18.4689M-18.4689 1197.52H62.2652M-18.4689 1197.52V1198M62.2652 1197.52H142.999M62.2652 1197.52V1198M142.999 1197.52H223.733M142.999 1197.52V1198M223.733 1197.52H304.467M223.733 1197.52V1198M304.467 1197.52H385.201M304.467 1197.52V1198M385.201 1197.52H465.935M385.201 1197.52V1198M465.935 1197.52L546.67 1197.52M465.935 1197.52V1198M546.67 1197.52H627.404M546.67 1197.52V1198M627.404 1197.52H708.138M627.404 1197.52V1198M708.138 1197.52H788.872M708.138 1197.52V1198M788.872 1197.52H869.606M788.872 1197.52V1198M869.606 1197.52H950.34M869.606 1197.52V1198M950.34 1197.52H1030.51M950.34 1197.52V1198M1031.07 1198V94" stroke="#F3F3F3"/>
</svg>
